# xmcd CD database file
#
# Track frame offsets:
#	150
#	12261
#	28768
#	48933
#	68198
#	83626
#	114763
#	128700
#	148718
#
# Disc length: 2506 seconds
#
# Revision: 0
# Processed by: cddbd v1.5.2PL0 Copyright (c) Steve Scherf et al.
# Submitted via: CDex 1.51
#
DISCID=6d09c809
DTITLE=M and J Blues - In The Presence Of Friends - Disc 1
DYEAR=2017
DGENRE=Blues
TTITLE0=M and J Boogie
TTITLE1=Take This Hammer
TTITLE2=St. Louis Blues
TTITLE3=You Better Move On
TTITLE4=The Cuckoo
TTITLE5=The Breeze
TTITLE6=Hoochie Coochie Coo
TTITLE7=I Drink
TTITLE8=Gin House
EXTD=YEAR: 2017
EXTT0=
EXTT1=
EXTT2=
EXTT3=
EXTT4=
EXTT5=
EXTT6=
EXTT7=
EXTT8=
PLAYORDER=
